<?xml version="1.0" standalone="no"?>
<!DOCTYPE svg PUBLIC "-//W3C//DTD SVG 20010904//EN"
 "http://www.w3.org/TR/2001/REC-SVG-20010904/DTD/svg10.dtd">
<svg version="1.0" xmlns="http://www.w3.org/2000/svg"
 width="512.000000pt" height="512.000000pt" viewBox="0 0 512.000000 512.000000"
 preserveAspectRatio="xMidYMid meet">
<metadata>
Created by potrace 1.11, written by Peter Selinger 2001-2013
</metadata>
<g transform="translate(0.000000,512.000000) scale(0.100000,-0.100000)"
fill="#000000" stroke="none">
<path d="M2310 5109 c-502 -55 -974 -249 -1355 -556 -129 -104 -340 -321 -433
-445 -265 -354 -434 -758 -498 -1193 -22 -147 -29 -428 -15 -575 42 -433 180
-833 405 -1174 414 -629 1047 -1032 1791 -1142 147 -22 428 -29 575 -15 433
42 833 180 1174 405 629 414 1032 1047 1142 1791 22 147 29 428 15 575 -51
524 -238 988 -558 1385 -104 129 -321 340 -445 433 -354 265 -755 432 -1193
498 -121 18 -487 26 -605 13z m-685 -1505 c253 -3 577 -2 720 4 143 5 261 9
262 8 2 -2 63 -380 63 -394 0 -7 -26 -2 -68 12 -140 48 -408 96 -535 96 l-49
0 5 -802 c4 -605 8 -818 18 -863 7 -33 13 -82 13 -110 l1 -50 -220 0 -220 0 0
50 c1 28 7 84 14 125 11 57 15 262 18 864 l5 789 -100 -6 c-140 -10 -308 -40
-439 -80 -84 -25 -113 -31 -113 -21 0 8 14 95 30 196 17 100 30 186 30 191 0
6 21 7 53 3 28 -3 259 -9 512 -12z m1965 6 c358 -47 570 -340 529 -731 -5 -51
-18 -122 -29 -158 -60 -197 -218 -366 -406 -432 -79 -28 -194 -48 -278 -49
l-69 0 6 -242 c4 -134 12 -279 19 -323 7 -44 12 -102 13 -130 l0 -50 -220 0
-220 0 1 50 c0 28 7 84 15 125 11 61 14 221 14 875 0 732 -2 809 -18 906 -11
58 -17 116 -15 130 3 23 6 24 58 19 85 -8 264 -4 375 7 135 14 139 14 225 3z"/>
<path d="M3358 3363 c-17 -4 -18 -33 -18 -434 l0 -429 63 0 c222 0 340 183
324 505 -9 183 -60 300 -150 344 -34 16 -61 21 -123 20 -43 -1 -87 -3 -96 -6z"/>
</g>
</svg>
